<?xml version="1.0" encoding="utf-8"?>
<!-- Generator: Adobe Illustrator 23.1.0, SVG Export Plug-In . SVG Version: 6.00 Build 0)  -->
<svg version="1.1" id="Layer_1" xmlns="http://www.w3.org/2000/svg" xmlns:xlink="http://www.w3.org/1999/xlink" x="0px" y="0px"
	 viewBox="0 0 256 256" style="enable-background:new 0 0 256 256;" xml:space="preserve">
<style type="text/css">
	.st0{display:none;fill:#E16162;}
	.st1{fill:#ABD1C6;}
	.st2{fill:#001E1D;}
	.st3{display:none;}
	.st4{display:inline;fill:#E16162;}
	.st5{fill:#E16162;}
	.st6{display:inline;fill:#101820;}
	.st7{fill:#F9BC60;}
</style>
<g transform="translate(0.000000,256.000000) scale(0.100000,-0.100000)">
	<g>
		<path class="st0" d="M1600,1774c-96,47-200,76-278,76c-80,0-82,4-82,145c0,94-3,125-13,125c-15,0-371-327-375-345
			c-4-16,365-358,378-350c6,4,10,55,10,124c0,78,4,121,12,129c29,29,158,7,268-45c133-63,249-203,291-353c6-25,12-88,12-140
			c0-156-54-281-171-393c-163-154-412-192-617-92c-141,69-257,219-288,375l-14,65l-82,3l-83,3l7-53c9-69,50-191,82-248
			c132-228,361-363,618-363c125,0,214,21,325,75c69,34,103,60,176,133c74,73,98,106,132,175c93,189,104,370,37,563
			C1888,1549,1757,1696,1600,1774z"/>
		<path class="st1" d="M1145,2468c-426-48-802-329-965-721c-125-301-127-627-5-923c101-244,273-441,501-575c272-159,593-205,899-128
			c372,94,675,363,818,724c173,436,66,945-269,1279c-193,194-446,314-727,345C1289,2481,1259,2481,1145,2468z"/>
		<path class="st2" d="M1280.5,49.3c-216.7,0-430.4,57.4-622.1,169.5C424.3,356.3,246,561,142.7,810.6
			c-125.1,303.5-123.3,640.8,5,949.8c167.1,401.8,557,693.2,993.4,742.3c116.6,13.3,148.2,13.4,259.8,1
			c290-32,548.7-154.8,747.9-355.1c169.1-168.6,284.8-382.6,334.4-618.7c49.7-236.2,29.7-477.5-57.7-697.9
			c-146.7-370.4-461.5-648.9-842-745C1483.2,61.8,1381.5,49.3,1280.5,49.3z M1275.2,2442.9c-34.7,0-69.6-3.2-126.2-9.7l0,0
			c-411.5-46.4-779.2-321-936.6-699.7c-121.2-291.7-122.9-610-5-896.2C304.8,601.9,473,408.9,693.7,279.2
			C958.8,124.2,1268.8,80,1566.4,155c358.7,90.6,655.5,353.4,794,702.9c166.8,420.4,61.9,919.3-261.2,1241.3
			c-188,189-432.1,304.8-706.1,335C1341.4,2440,1308.4,2442.9,1275.2,2442.9z"/>
	</g>
</g>
<g class="st3">
	<path class="st4" d="M46.7,110.7v35.6c0,3.3,2.8,5.9,6.2,5.9h18.5v-47.5H52.9C49.4,104.8,46.7,107.5,46.7,110.7z"/>
	<polygon class="st4" points="133.2,188.4 133.2,68.7 83.7,101.9 83.7,155.2 	"/>
	<path class="st5" d="M9.1,12.9v241h251.4v-241C260.5,12.9,9.1,12.9,9.1,12.9z M145.5,199.8c0,2.2-1.3,4.3-3.3,5.3
		c-0.9,0.4-1.9,0.7-2.8,0.7c-1.3,0-2.5-0.4-3.5-1.1l-60.2-40.5H52.9c-10.2,0-18.5-8-18.5-17.8v-35.6c0-9.8,8.3-17.8,18.5-17.8h22.8
		l60.2-40.5c1.8-1.2,4.2-1.4,6.2-0.4c2.1,1,3.5,3,3.5,5.3v88.1c7.2-2.5,12.3-9,12.3-16.8c0-4.7-2-9.2-5.4-12.6l8.8-8.4
		c12.1,11.6,12.1,30.4,0.1,42c-4.3,4.2-9.8,7-15.7,8.1v42H145.5z M174.2,168.1c-1.6,0-3.2-0.6-4.3-1.7c-2.1-2.4-2-5.9,0.3-8.1
		c16.9-16.2,16.9-42.6,0-58.8l0,0c-2.2-2.5-1.9-6.2,0.7-8.4c2.3-1.9,5.7-1.9,8,0c21.7,20.9,21.7,54.7,0,75.6
		C177.6,167.7,175.9,168.2,174.2,168.1z M196.1,183.2c-1.2,1.1-2.7,1.7-4.4,1.7c-1.6,0-3.2-0.6-4.4-1.7c-2.4-2.3-2.4-6.1,0-8.4l0,0
		c26.5-25.5,26.5-66.8,0-92.3c-2.4-2.3-2.4-6.1,0-8.4s6.3-2.3,8.8,0C227.4,104.1,227.4,153,196.1,183.2z"/>
	<path class="st6" d="M139.3,146.4c2.2,0,4.2-0.4,6.2-1V57.3c0-2.3-1.4-4.3-3.5-5.3c-2-0.9-4.3-0.8-6.2,0.4L75.6,92.9h1.9
		c3.4,0,6.2,2.7,6.2,5.9v3.1l49.4-33.3v119.8l-49.4-33.3v3.1c0,3.3-2.8,5.9-6.2,5.9h-1.9l60.2,40.5c1,0.7,2.3,1.1,3.5,1.1
		c1,0,2-0.2,2.8-0.7c2.1-1,3.3-3.1,3.3-5.3v-42.2c-2,0.4-4.1,0.6-6.2,0.6L139.3,146.4L139.3,146.4z"/>
	<path class="st6" d="M71.4,158.3v-5.9H52.9c-3.4,0-6.2-2.7-6.2-5.9v-35.6c0-3.3,2.8-5.9,6.2-5.9h18.5v-5.9c0-1.9,1-3.8,2.7-4.9
		l1.6-1.1H52.9c-10.2,0-18.5,8-18.5,17.8v35.6c0,9.8,8.3,17.8,18.5,17.8h22.8l-1.6-1.1C72.4,162,71.4,160.2,71.4,158.3z"/>
	<path class="st6" d="M83.7,158.3v-3.1V102v-3.1c0-3.3-2.8-5.9-6.2-5.9h-1.9L74,94c-1.7,1.1-2.7,2.9-2.7,4.9v5.9v47.5v5.9
		c0,1.9,1,3.8,2.7,4.9l1.6,1.1h1.9C81,164.2,83.7,161.5,83.7,158.3z"/>
	<path class="st6" d="M161.2,107.5l-8.8,8.4c3.5,3.3,5.4,7.9,5.4,12.6c0,7.8-5.1,14.3-12.3,16.8v12.3c5.9-1.2,11.4-4,15.7-8.1
		C173.3,137.9,173.3,119.1,161.2,107.5z"/>
	<path class="st6" d="M139.3,146.4v11.9c2.1,0,4.2-0.2,6.2-0.6v-12.3C143.6,146,141.5,146.4,139.3,146.4z"/>
	<path class="st6" d="M187.3,74c-2.4,2.3-2.4,6.1,0,8.4c26.5,25.5,26.5,66.8,0,92.3l0,0c-2.4,2.3-2.4,6.1,0,8.4
		c1.2,1.1,2.7,1.7,4.4,1.7c1.6,0,3.2-0.6,4.4-1.7c31.3-30.2,31.3-79,0-109.2C193.7,71.6,189.8,71.6,187.3,74z"/>
	<path class="st6" d="M178.9,91.1c-2.3-1.9-5.7-1.9-8,0c-2.6,2.1-2.9,5.9-0.7,8.4l0,0c16.9,16.2,16.9,42.6,0,58.8
		c-2.3,2.2-2.4,5.7-0.3,8.1c1.2,1.1,2.7,1.7,4.3,1.7c1.7,0.2,3.4-0.3,4.7-1.4C200.6,145.8,200.6,111.9,178.9,91.1z"/>
</g>
<g>
	<path class="st7" d="M190.7,115.2l-44.8,0c-2.8,0-5.1-2.3-5.1-5.1l0-44.8c0-3.1-1.2-6-3.4-8.1c-2.2-2.2-5.1-3.4-8.1-3.4
		c-3.1,0-6,1.2-8.2,3.4c-2.2,2.2-3.4,5.1-3.4,8.1v44.8c0,2.8-2.3,5.1-5.1,5.1l-47.4,0c-3.1,0-6,1.2-8.2,3.4
		c-2.2,2.2-3.4,5.1-3.4,8.1c0,3.1,1.2,6,3.4,8.2c2.2,2.2,5.1,3.4,8.2,3.4l47.4,0c1.4,0,2.7,0.6,3.6,1.5c0.9,0.9,1.5,2.2,1.5,3.6
		l0,47.4c0,3.1,1.2,6,3.4,8.2c2.2,2.2,5.1,3.4,8.1,3.4c3.1,0,6-1.2,8.2-3.4c2.2-2.2,3.4-5.1,3.4-8.1l0-47.4c0-2.8,2.3-5.1,5.1-5.1
		l44.8,0c3.1,0,6-1.2,8.2-3.4c2.2-2.2,3.4-5.1,3.4-8.2c0-3.1-1.2-6-3.4-8.1C196.7,116.4,193.8,115.2,190.7,115.2z"/>
	<path d="M190.7,105H151l0-39.7c0-5.8-2.3-11.3-6.4-15.4c-4.1-4.1-9.6-6.4-15.4-6.4c-5.8,0-11.3,2.3-15.4,6.4
		c-4.1,4.1-6.4,9.6-6.4,15.4l0,39.7l-42.2,0c-5.8,0-11.3,2.3-15.4,6.4c-4.1,4.1-6.4,9.6-6.4,15.4c0,5.8,2.3,11.3,6.4,15.4
		c4.1,4.1,9.6,6.4,15.4,6.4l42.3,0v42.3c0,5.8,2.3,11.3,6.4,15.4c4.1,4.1,9.6,6.4,15.4,6.4c5.8,0,11.3-2.3,15.4-6.4
		c4.1-4.1,6.4-9.6,6.4-15.4l0-42.2l39.7,0c5.8,0,11.3-2.3,15.4-6.4c4.1-4.1,6.4-9.6,6.4-15.4c0-5.8-2.3-11.3-6.4-15.4
		C202,107.2,196.5,105,190.7,105z M198.8,134.9c-2.2,2.2-5.1,3.4-8.2,3.4l-44.8,0c-2.8,0-5.1,2.3-5.1,5.1l0,47.4
		c0,3.1-1.2,6-3.4,8.1c-2.2,2.2-5.1,3.4-8.2,3.4c-3.1,0-6-1.2-8.1-3.4c-2.2-2.2-3.4-5.1-3.4-8.2l0-47.4c0-1.4-0.6-2.7-1.5-3.6
		c-0.9-0.9-2.2-1.5-3.6-1.5l-47.4,0c-3.1,0-6-1.2-8.2-3.4c-2.2-2.2-3.4-5.1-3.4-8.2c0-3.1,1.2-6,3.4-8.1c2.2-2.2,5.1-3.4,8.2-3.4
		l47.4,0c2.8,0,5.1-2.3,5.1-5.1V65.3c0-3.1,1.2-6,3.4-8.1c2.2-2.2,5.1-3.4,8.2-3.4c3.1,0,6,1.2,8.1,3.4c2.2,2.2,3.4,5.1,3.4,8.1
		l0,44.8c0,2.8,2.3,5.1,5.1,5.1l44.8,0c3.1,0,6,1.2,8.1,3.4c2.2,2.2,3.4,5.1,3.4,8.1C202.2,129.8,201,132.7,198.8,134.9z"/>
</g>
</svg>
